P2
# Creator: University of New Mexico Scheme 2.7
64 64
255
  135   131   129   131   136   134   132   130   134   138   137   133   131   131   131 
  132   132   134   140   136   130   135   139   143   146   139   140   141   140   138 
  138   139   136   134   132   129   129   132   133   131   134   137   143   146   146 
  145   140   136   135   136   137   137   137   136   134   134   133   134   134   133 
  135   135   128   130   144   140   142   149   149   143   134   131   135   136   136 
  135   130   128   127   129   133   135   138   141   142   141   142   144   147   146 
  147   144   141   140   134   129   127   124   121   116   117   123   125   124   122 
  123   126   132   141   146   147   148   147   147   145   143   143   143   139   136 
  135   136   138   140   141   143   143   142   134   127   133   142   140   133   128 
  128   133   132   131   130   128   130   128   126   129   132   134   136   135   131 
  131   133   135   133   134   136   135   136   133   130   130   130   131   128   127 
  130   128   126   122   120   119   117   118   120   125   132   140   146   144   143 
  142   145   144   135   131   132   135   136   136   133   134   136   126   116   121 
  131   130   124   122   124   127   126   122   119   121   126   126   124   125   127 
  128   128   128   128   128   128   129   127   128   129   129   129   128   129   131 
  132   132   131   130   128   128   129   129   126   123   119   118   117   114   112 
  118   125   127   133   142   151   153   147   140   136   136   135   133   129   131 
  134   129   123   125   129   130   129   126   124   127   132   130   127   127   126 
  124   124   124   124   123   122   123   125   128   128   129   128   127   126   126 
  128   127   128   130   129   127   126   127   128   128   132   136   134   128   126 
  125   124   122   118   117   117   113   113   118   123   128   136   142   142   141 
  138   134   131   131   134   134   135   136   134   132   132   132   130   133   139 
  139   140   142   139   135   136   132   131   127   121   116   115   122   128   131 
  131   131   127   125   127   126   126   128   127   124   122   124   127   130   133 
  135   136   137   137   132   128   126   124   125   127   123   116   114   112   110 
  113   120   127   133   139   143   144   142   138   136   135   138   136   134   132 
  134   137   141   144   137   134   135   135   135   139   136   138   140   136   128 
  120   120   123   126   130   134   132   129   127   127   127   130   131   126   125 
  125   126   125   126   126   127   137   145   145   141   135   131   132   133   133 
  128   126   126   124   120   116   115   115   121   129   136   142   142   133   132 
  131   132   136   145   149   151   153   150   135   127   126   127   130   132   133 
  134   141   148   146   138   128   119   118   119   123   125   125   126   125   125 
  132   136   138   141   140   137   132   126   122   120   125   132   139   147   142 
  137   136   134   134   132   133   133   134   132   127   123   120   117   114   112 
  120   129   130   136   134   130   125   133   137   139   144   147   141   137   134 
  132   131   129   130   130   132   138   140   139   134   127   127   124   126   130 
  129   126   122   121   126   132   137   139   144   148   147   143   134   124   121 
  123   127   134   136   135   133   131   130   129   129   130   133   135   134   131 
  130   127   121   115   119   121   124   125   122   121   116   115   114   114   116 
  122   134   145   147   145   140   133   133   131   131   131   130   131   136   142 
  143   137   139   144   141   134   130   124   124   131   131   123   124   132   138 
  143   142   133   129   126   124   127   130   132   132   130   129   127   126   125 
  129   131   130   132   133   131   127   124   124   120   127   128   124   124   121 
  113   112   117   118   114   115   121   126   135   135   132   138   142   139   133 
  128   129   137   145   138   131   135   140   138   135   131   128   126   130   134 
  125   118   121   124   127   131   130   132   133   127   124   127   131   131   129 
  128   127   125   122   124   126   126   128   130   129   127   128   127   123   137 
  143   139   137   128   118   118   123   127   124   120   115   115   118   116   112 
  120   140   149   145   136   140   147   142   132   128   132   135   136   136   136 
  133   126   125   132   131   123   124   123   122   124   125   129   130   130   128 
  132   132   129   126   126   127   127   126   126   129   130   131   132   130   127 
  128   129   126   139   139   129   132   134   132   128   128   130   131   130   128 
  129   130   121   109   109   118   129   136   139   146   151   140   133   132   130 
  130   134   135   136   137   129   124   129   133   124   129   131   125   124   127 
  129   128   126   127   132   135   135   130   130   136   138   136   136   140   141 
  145   148   139   127   126   127   128   126   121   115   128   140   138   135   136 
  136   133   130   130   134   135   130   124   123   119   117   120   121   127   136 
  136   139   140   134   129   132   135   133   134   136   133   130   132   125   126 
  129   123   120   124   128   131   129   126   125   128   134   136   136   135   131 
  131   134   133   129   131   136   135   127   125   128   126   128   125   120   127 
  141   140   134   137   138   137   132   128   132   134   135   134   130   125   123 
  121   113   111   114   120   133   142   140   135   133   134   134   133   135   135 
  134   135   135   133   133   129   124   123   123   125   128   129   127   126   126 
  131   137   134   128   126   128   121   111   109   115   121   124   126   129   126 
  138   139   130   123   132   141   135   133   132   136   138   135   135   135   135 
  135   130   123   124   125   120   115   113   112   116   126   135   139   139   137 
  137   136   132   131   133   133   137   140   140   139   138   136   129   120   119 
  124   130   129   124   128   139   140   135   131   126   111   102   100   102   107 
  112   118   125   129   136   141   133   115   112   124   131   132   130   130   134 
  135   135   135   135   136   137   136   137   138   132   125   121   120   117   114 
  118   123   128   134   139   138   133   132   136   135   134   135   136   135   136 
  140   137   126   120   122   130   134   130   131   138   140   145   139   128   132 
  161   171   154   126   107   115   124   126   130   136   136   123   109   113   122 
  125   121   118   122   125   124   128   134   135   139   142   137   131   126   126 
  125   123   122   120   116   115   116   119   127   134   139   139   144   145   133 
  130   131   131   134   140   143   141   139   137   140   145   141   140   145   150 
  156   132   111   166   224   227   206   179   128   120   130   125   132   132   131 
  133   129   126   125   128   125   125   131   134   128   125   127   127   128   130 
  130   129   129   132   130   127   127   128   126   127   129   125   120   121   127 
  132   144   148   138   132   129   129   132   138   142   145   149   148   149   152 
  144   141   144   139   125    92    75   107   166   196   186   179   128   108   126 
  122   142   146   132   131   135   139   140   143   143   140   137   135   133   131 
  126   119   117   121   129   134   135   138   138   135   129   127   128   128   129 
  128   126   124   117   115   124   132   140   144   140   137   137   138   132   125 
  115   107   103   106   104   104   107   107   104    97    84    61    73   117   141 
  149   111    81   115   120   133   150   139   130   132   136   138   139   137   133 
  127   127   130   128   127   128   127   126   130   134   133   134   134   136   136 
  128   125   126   123   123   128   128   123   116   114   113   122   137   138   125 
  110    94    83    80    78    80    87    93    84    79    85    90    93    90    79 
   54    44    80   119   136   132   113   114   111   123   140   136   130   130   132 
  134   132   127   125   126   126   128   130   131   132   134   132   127   128   133 
  134   132   131   136   136   134   133   129   130   137   135   132   128   122   113 
  107   104    93    84    95   117   135   142   143   142   142   130    96    68    62 
   57    57    59    67    76    96   123   132   138   141   134   116   103   124   133 
  133   131   130   130   135   135   130   131   132   127   127   131   130   127   129 
  134   131   125   126   131   132   129   127   135   141   146   146   143   147   146 
  136   119   103    91    90   109   131   157   184   197   189   169   167   177   179 
  174   159   152   154   143   140   149   162   166   162   156   146   141   143   145 
  130   111   120   133   133   132   130   128   132   134   133   129   130   133   130 
  127   128   128   131   134   134   130   122   123   127   130   123   127   138   141 
  130   132   143   123    94    78    82   110   152   193   207   198   175   150   133 
  136   204   236   231   229   225   221   229   227   219   213   205   193   179   172 
  162   162   168   171   153   117   122   141   136   134   131   129   131   131   130 
  127   129   138   135   126   126   130   131   132   135   137   131   121   121   135 
  130   128   129   131   132   125   110    85    89   128   159   183   193   191   161 
  113    88    95    92    88   151   176   184   183   182   176   195   222   217   210 
  203   196   191   188   186   187   192   189   156   110   131   155   137   133   130 
  128   131   133   129   126   129   133   135   130   126   130   130   133   140   143 
  141   130   121   124   118   120   134   155   132   101    93    93   150   195   193 
  193   184   142    88    76    87   107   100    70    74   110   128   124   105    70 
   94   156   175   176   184   190   196   213   218   212   195   173   135    94   133 
  155   136   134   130   128   130   133   129   126   128   128   128   123   120   123 
  125   133   134   124   121   132   137   123   117   138   164   146    97    88    83 
  120   191   199   180   172   147    87    79    98   113   123   118    99    90   122 
  142   113    88    69    67    74    76    73    78    90    90   104    99    99   133 
  137   112    83   134   149   140   139   135   131   132   133   131   128   127   124 
  117   109   112   130   133   108    79    60    69   121   148   140   143   165   176 
  122    79    82    76   121   191   196   173   159   113    66    94   116   125   125 
  124   116   107   105   108    96    95    96    96    85    80    74    70    68    63 
   64    59    56    82   103    91    83   137   134   131   135   138   136   136   135 
  132   130   128   121   115   128   163   196   175    90    68    84   130   158   146 
  141   147   167   179   111    71    79    82    99   164   182   177   163   104    71 
  107   123   128   127   125   118   111   106   104   106   109   114   117   113   113 
  114   113   112   111   111   107   100    94    88    84   111   138   125   115   116 
  125   131   137   140   137   133   129   123   120   158   204   221   192    81    73 
  148   181   167   143   147   147   174   197   119    58    79    89    84   147   181 
  184   172   103    73   110   125   128   123   118   107    98    89    83    87    99 
  121   127   116   124   141   134   125   125   124   119   110   100    88   101   138 
  139   135   122   116   114   115   123   134   139   140   137   127   120   155   197 
  204   172    77   108   172   153   131   144   153   145   180   201   143    81   102 
   96    75   128   183   179   171   109    73   109   124   123   116   107   115   140 
  114    85    88   104   111   111   126   146   154   136   126   125   120   113   104 
   98   104   136   143   139   142   129   133   139   133   126   123   126   134   140 
  138   120   130   167   174   166   155   161   125    82    88   152   157   150   182 
  188   140   102   102    96    77   103   173   182   175   128    72    97   114   111 
  102    90   130   224   208   167   168   191   170   138   144   137   132   124   119 
  115   111   113   118   134   147   149   136   129   134   137   166   170   150   140 
  135   126   122   124   131   111    88   115   141   163   178   131    78    51    72 
  161   168   156   182   186   141   107   105    95    85    88   149   186   183   154 
   94    83    91    93    84    69   110   216   252   238   243   243   165   114   117 
  120   121   118   110   104   113   134   149   154   147   137   126   129   145   162 
  146    93    76    91   124   138   125   114   112   104    99   127   128   161   161 
  101    77    67    75   159   170   157   185   188   143   112   117    98    91    85 
  120   178   184   170   136    90    72    98   109    91   143   216   232   206   192 
  162   106   100   112   118   120   114    97   104   108   117   139   142   134   126 
  117   140   168   154    84    54    55    62    81   132   138   123   120   139   160 
  130   128   174   137    99    97    88    78   143   158   148   182   192   145   105 
  126   118    98    91    99   165   187   177   157   122   102   155   204   181   159 
  155   133   105    96    92    97   111   118   123   125   111   105   179   187   124 
  118   125   128   125   116   133   134   135   112   105    98    76    55    99   149 
  146   147   150   130   105   147   165   105   100   109    96    72   132   165   137 
  163   191   147   108   135   135   103    95    81   135   173   168   158   134   120 
  175   219   192   129    80    67    74    86    99   110   119   123   127   124   113 
  145   215   251   199   122   114   124   126   117   126   111   164   196   204   203 
  180   133   104   145   161   156   110    75    99   168   146    98   110   114   103 
   75   131   184   150   152   170   128   101   137   129    93    84    61    92   154 
  176   163   128   128   157   172   162   129    91    91   108   116   119   124   129 
  130   130   117   107   128   163   216   239   169   117   119   123   117   132   143 
  189   207   211   214   207   185   135   135   160   141    76    48    99   180   145 
  105   119   118   108    78   127   189   168   164   175   113    61    76    77    58 
   46    28    34   102   141   137   117   137   153   131   126   115    96   108   121 
  125   127   132   131   123   130   122    96    89   103   147   214   211   140   127 
  125   116   144   160   142   114   112   135   171   176   131   115   148   126    85 
   56    98   181   146   101   118   120   111    83   122   177   158   154   164   104 
   38    39    72   102   127   143   121    90    69    73    89   127   146   139   137 
  125   105   115   124   127   130   132   122   115   147   161   114    91    85    80 
  110   143   114   128   130   122   153   141    80    71    64    51   126   171   127 
   94   125   127   139   114    99   160   144    94   111   120   112    83   107   171 
  158   132   129    60    13    66   152   202   222   231   224   194   146   139   135 
  129   131   149   161   137   113   119   126   129   133   125   113   124   158   165 
  142   106    93    80    84   119    89   113   134   127   154   126    84    91    93 
   69   140   182   129    67    85   124   158   152   109   146   153   102   110   119 
  114    88   101   159   162   134   114    84   126   184   200   194   186   186   184 
  166   150   165   182   159   124   125   140   126   116   123   127   129   128   116 
  116   144   150   148   149   127    96    86    88   112    82    93   126   124   150 
  122    86    77   101   137   185   189   119    39    80   146   160   149   112   135 
  164   117   105   115   113    93   104   154   159   151   170   198   212   201   185 
  178   172   168   172   170   159   166   174   159   143   120   116   114   119   125 
  127   125   120   114   132   150   140   136   141   136   104    98    97   116   108 
  112   112   116   150   123    78    53   127   203   197   185   113    67   149   174 
  158   149   127   126   165   131    94   102   104    94   110   143   127   126   177 
  218   203   185   172   164   149   143   155   159   155   154   144   128   125   114 
  112   119   125   127   126   120   119   130   144   143   136   141   158   157   142 
  161   162   176   184   168   124   114   164   133    72    55   170   223   195   177 
  100   109   176   172   149   141   135   124   158   144    83    77    99   117   127 
  132   117    98   113   192   219   201   175   158   140   135   141   137   127   118 
  111   105   107   111   119   124   127   126   123   117   127   145   145   136   131 
  129   122   118   160   178   169   191   215   214   169   125   154   147    68    80 
  188   215   195   144    43   108   173   169   148   142   137   128   138   145    82 
  102   157   148   142   142   134   116    86   102   170   184   159   138   126   119 
  106    92    89    95   102   109   116   122   126   128   129   125   121   132   159 
  149   122   112   105    99    96   128   185   136   101   141   203   201   119    80 
  137   151    77   117   184   212   196    84     0    90   160   166   155   151   145 
  136   130   135   131   185   156   122   126   121   109    95    78    62    93   129 
  120   109   107   101    89    92   102   110   116   120   125   129   130   129   128 
  123   125   154   164   130   106   102   102   102   103   126   143    95    63    81 
  163   152    75    50   135   116    78   129   175   206   160    32    50   142   165 
  165   161   153   141   126   122   137   193   185    97    72    75    68    74    88 
   98    94    92    98    99   100   104   107   112   118   122   124   126   130   132 
  132   131   129   128   123   129   145   131   118   111   122   156   138   106   112 
  134   114    85    74   137   140   105    94   135    85    80   121   160   168    90 
   48   138   177   171   169   165   152   131    84    78   145   195   155   131   118 
  115    98    56    67   100   112   110   107   107   110   115   120   124   128   129 
  129   130   132   131   131   130   129   127   123   125   128   124   126   128   168 
  201   135   110   129   147   141   112    77   111   153   116   121   137    79    95 
  122   148   146   112   142   173   172   169   166   152   142   103    63    67   132 
  152   152   213   224   226   220   154   102   103   113   119   119   121   123   125 
  127   128   129   129   130   131   131   130   129   128   128   126   124   123   125 
  137   135   126   158   180   125   119   127   135   140   124    93   121   189   158 
  135   132    81   100   135   131   148   159   175   170   170   170   162   135   103 
   82    83    88    97   127   159   214   237   244   255   251   210   139   108   117 
  124   127   127   127   128   129   129   129   130   130   129   129   128   128   127 
  126   125   125   124   128   124   109   111   126   121   119   121   125   127   120 
  114   155   180   183   144   125   115   157   151   122   137   177   181   169   176 
  182   163   103    66    93   109   109    89    85   130   192   216   184   137   127 
  138   134   113   105   116   128   131   131   129   128   128   128   128   128   128 
  128   127   127   127   127   127   126   123   123   133   135   130   129   127   125 
  126   125   123   119   107   117   125   136   132   125   129   191   172    88   100 
  166   183   182   197   200   157    89    74   108   120   119   102    78    82   149 
  167    96    86   101   101    90   109    98    85   108   120   125   125   123   123 
  124   125   125   124   124   123   123   125   125   125   125   125   128   136   142 
  142   135   129   133   137   127   131   134   122   117   123   126   127   125   112 
  149   183    91    38    97   159   188   203   174   127    87    89   114   122   120 
  107    88    71   108   127    66    90   128   117   104   158   160    85    79   100 
  115   118   119   123   130   131   123   117   117   116   116   119   122   125   128 
  131   132   131   130   130   130   132   137   135   130   136   141   137   140   143 
  128   128   125   108   113   165   151    49    46   110   164   173   133   104    88 
   94   107   110   105    91    96   122   128   127    74    75   115   105   126   228 
  229   154    78    90   121   128   137   136   126   116   109   101    99    99   100 
  110   119   126   129   126   122   123   124   123   126   129   127   129   134   136 
  137   135   135   138   133   132   128   116   113   123   162   113    59    63   112 
  129   103    94   108   108    97    92    85    77   112   166   161   145    97    77 
   86    85   160   234   227   228   138    87   118   124   120   115   133   139   126 
   95   124   164   166   157   119   118   119   111   109   112   115   120   128   126 
  127   134   137   134   129   129   129   128   133   139   126   110   119   121   131 
  164   144    88    68    78    67    84   129   159   149   146   149   160   186   198 
  186   155   127    89    69    95   191   222   216   248   167    69    98   106   109 
  130   140   119   105    93   174   217   184   164   108   100   107   124   151   118 
  101   107   120   125   131   134   134   133   132   129   129   128   137   144   122 
  109   126   139   128   132   159   160   128   123   120    98   115   163   189   201 
  186   183   173   162   195   202   141    87    84   124   185   197   204   229   142 
   61    83   100   120   114    92    86    69    70   111   123   103   104    90    81 
  110   194   220   185   162   116   113   122   130   133   131   131   135   132   130 
  128   131   136   123   119   127   124   124   126   123   135   145   191   204   144 
   99    96   107   106   100   118   117    98   143   157   113    95   104   116   160 
  188   187   177    79    50    64    64    99   163   181   191   182   164   190   206 
  199   178   117    71    81   124   129   178   215   162   117   127   130   133   134 
  134   134   131   130   128   130   134   128   127   128   123   121   125   120   119 
  122   138   155   138   120   116   119   118   121   129   129   118   125   126   118 
  115   111    95   113   165   189   179    87    48    88   125   176   221   220   226 
  196    96    71    90   114   161   194   153   135   113   106   122   154   138   117 
  127   134   132   132   132   130   128   128   129   132   133   130   133   132   132 
  140   141   134   135   149   128   126   126   128   129   130   128   127   126   121 
  118   116   118   122   122   119   101    90   120   163   190   142    93   141   203 
  229   222   206   207   192   153   125   133   166   189   183   178   225   175   102 
  108   123   119   123   129   134   134   133   132   130   128   128   131   131   127 
  133   136   133   132   140   139   126   122   128   125   125   122   126   128   126 
  122   127   131   132   134   130   125   120   119   119   113   100    93   110   140 
  150   143   153   165   163   150   134   125   111   119   121   116   125   112   104 
  111   160   163   108   118   126   124   129   127   129   131   131   132   131   129 
  130   135   134   127   136   136   133   135   137   127   119   123   125   118   117 
  124   134   136   135   136   141   139   143   144   136   130   124   116   110   114 
  115    93    77    80    92   103   111    91    87    82    77    84    93   108   114 
  111   117   114   113   113   117   121   117   127   127   129   127   123   124   126 
  127   128   129   128   130   136   130   127   130   131   129   129   130   126   127 
  124   117   122   133   141   139   137   134   132   127   125   128   135   133   131 
  123   114   116   122   118   105    98   105   125   130   123   113   119   125   126 
  128   130   134   130   131   125   120   122   121   120   121   123   126   126   124 
  121   121   123   124   124   123   122   123   124   123   119   119   125   123   119 
  116   119   120   123   120   126   137   142   136   129   130   129   125   118   122 
  124   119   115   120   116   121   127   117   117   124   129   132   145   148   138 
  140   147   150   147   145   135   126   126   135   140   133   126   128   128   120 
  119   121   123   120   117   118   123   126   126   124   121   120   122   119   107 
  111 
