P2
# Creator: University of New Mexico Scheme 2.7
64 64
255
  117   115   114   116   119   116   112   110   113   116   116   111   107   104   101 
  100    98    98   102    97    90    90    90    92    93    87    87    90    92    95 
   99   103   104   105   105   105   105   107   107   106   108   112   118   122   124 
  125   122   119   119   120   121   121   121   120   119   118   117   117   116   116 
  116   115   110   112   130   127   129   135   135   129   120   117   119   120   120 
  116   110   105   102   101   103   104   105   106   104   102   101   102   104   103 
  103   102   102   103   101    99    98    97    96    93    93    97    98    98    96 
   98   102   108   116   121   124   126   128   130   130   130   132   132   130   127 
  125   126   127   128   129   129   129   128   128   123   127   135   134   127   121 
  120   123   122   120   116   112   110   106   103   104   106   107   107   105   101 
   99   101   102   101   102   103   103   104   102   100   100   100   100    98    97 
   99    98    97    94    93    93    93    95    98   104   112   121   128   130   132 
  134   137   137   131   127   128   130   131   131   129   129   130   124   117   121 
  129   129   123   121   122   124   123   119   114   112   113   110   107   106   106 
  105   103   102   100    99    99   100    99    99   100    99   100    98    99   100 
  101   101    99    98    98    99   100   100    98    96    94    93    93    92    93 
   99   106   110   117   126   135   139   135   131   130   130   131   130   128   129 
  130   126   122   123   127   129   129   127   126   129   133   131   126   123   119 
  115   113   110   108   106   102   100   100   100   100   101   100   100    98    97 
   98    97    98   100   100    98    98    98   100   101   105   108   106   102   100 
   99    97    95    93    92    94    93    95   101   107   113   121   127   130   131 
  130   128   128   128   130   129   130   131   132   133   134   136   137   141   145 
  143   142   140   135   129   128   124   121   116   108   102    98   100   103   105 
  105   105   101    99    99    98    99   101   101    99    99   100   103   106   108 
  110   111   112   112   109   105   103   100   100   100    98    94    93    93    94 
   98   104   111   117   122   128   131   132   130   128   129   132   133   134   136 
  141   146   151   153   147   143   141   138   136   137   134   134   133   128   118 
  108   105   105   106   108   111   108   105   102   101   102   105   107   105   105 
  106   106   106   106   105   107   115   122   123   121   115   110   109   108   106 
  101    99    98    98    96    94    94    96   102   110   119   126   129   120   122 
  123   126   130   140   147   152   157   156   146   138   136   134   135   135   135 
  136   140   143   139   130   119   110   108   108   110   110   108   106   104   104 
  109   114   117   120   121   120   116   110   105   103   106   113   120   126   122 
  117   115   111   109   105   105   104   105   104   100    97    95    94    93    95 
  103   113   112   119   120   119   117   125   132   138   145   149   146   143   139 
  137   135   133   134   135   138   142   142   139   132   125   122   119   119   120 
  118   113   107   106   109   115   121   123   127   130   130   124   115   106   103 
  106   110   117   119   117   115   111   108   105   104   104   107   108   106   104 
  101    98    93    90    95   101   105   108   108   108   104   105   106   110   115 
  122   132   141   143   141   137   134   134   136   138   139   138   138   141   143 
  141   136   136   138   134   126   119   113   112   117   118   112   112   118   122 
  123   120   112   108   106   106   109   113   115   114   111   108   105   103   102 
  105   107   106   107   106   103    98    96    97    98   106   108   107   107   103 
   98    98   103   107   108   111   117   123   129   129   128   134   140   142   140 
  137   140   146   150   144   138   140   142   139   134   127   121   118   119   121 
  113   106   108   109   110   111   109   109   110   106   105   109   113   113   111 
  109   107   104   102   104   106   107   107   108   105   101   100   100   100   114 
  119   118   117   110   103   103   109   113   114   112   111   111   113   111   108 
  115   132   142   142   139   144   151   148   141   137   138   140   140   138   136 
  130   122   119   122   119   110   109   107   105   104   105   106   107   107   107 
  112   113   113   110   110   110   110   109   109   112   114   114   114   109   104 
  103   103   103   117   118   112   116   118   118   115   116   119   120   121   119 
  119   118   110   101   101   110   121   130   135   143   149   142   137   137   135 
  136   139   140   139   137   128   122   123   123   114   115   114   107   104   105 
  106   105   104   106   111   116   117   115   116   120   121   120   120   123   124 
  127   128   118   106   103   104   107   109   107   104   115   126   126   125   128 
  128   127   124   124   125   125   119   112   109   107   107   110   111   118   126 
  129   133   136   134   132   135   138   137   137   136   132   128   127   120   118 
  117   110   104   105   106   107   106   105   106   111   117   121   122   122   119 
  118   119   119   116   118   121   117   108   105   106   107   112   111   108   116 
  129   131   129   132   134   134   129   126   128   128   126   123   116   110   107 
  103    97    96    99   106   119   129   131   131   132   135   136   135   136   136 
  134   134   132   128   125   119   112   108   105   105   106   108   108   109   112 
  118   124   123   117   115   116   113   107   107   110   111   109   108   110   109 
  123   124   119   114   122   131   130   130   130   133   135   133   132   131   130 
  127   120   112   109   106    99    94    92    92    98   108   118   125   128   131 
  133   134   133   133   136   135   137   137   135   130   127   122   115   106   103 
  106   112   113   111   116   125   126   121   117   116   113   115   118   119   115 
  108   108   111   115   126   131   124   111   108   119   126   129   129   130   133 
  134   133   132   131   130   128   124   121   118   109   100    95    93    91    92 
   98   106   113   122   129   131   130   132   137   137   136   136   134   131   130 
  130   125   114   106   108   114   117   115   117   122   122   123   119   115   132 
  168   183   173   142   116   113   114   117   126   132   132   121   110   115   123 
  126   125   123   125   127   125   126   129   128   129   129   123   116   109   105 
  101    97    95    94    93    95    99   104   112   120   126   130   138   140   133 
  130   129   128   128   130   131   126   122   120   121   123   119   116   117   116 
  117    99    90   147   210   228   221   191   140   123   122   120   131   134   134 
  133   129   128   129   131   130   129   132   133   127   122   122   121   120   121 
  120   117   115   114   110   105   102   102    99   100   102   102   100   103   110 
  118   130   135   131   127   124   123   124   127   129   129   129   127   126   125 
  115   108   105    95    80    56    49    95   164   207   213   199   149   122   124 
  122   142   147   140   138   140   143   145   147   146   142   138   134   130   126 
  121   115   113   115   120   123   123   123   121   116   109   105   104   103   103 
  102   100    99    96    96   105   114   122   126   124   121   121   121   117   111 
  104    98    94    90    82    74    69    62    55    49    45    50    85   141   176 
  178   142   109   121   124   138   153   148   142   143   146   149   148   145   139 
  132   129   128   125   122   121   119   118   122   125   124   124   123   122   120 
  111   107   105   101    99   101    98    93    88    87    90   101   115   118   109 
   98    87    81    81    81    84    89    86    71    58    53    51    50    48    45 
   44    59   108   156   170   162   138   126   123   134   147   147   143   143   145 
  146   144   138   134   131   129   128   127   126   126   126   125   121   122   125 
  125   124   122   124   122   118   114   108   106   107   101    96    92    88    87 
   90    94    91    86    94   110   125   137   145   152   156   143   111    83    71 
   64    62    66    77    95   124   160   181   187   184   165   139   123   135   142 
  144   143   142   143   146   145   140   137   136   130   128   129   127   125   126 
  128   125   121   120   123   125   122   121   125   128   126   121   114   112   107 
   98    87    79    77    84   102   120   137   156   166   166   165   177   198   209 
  203   186   175   170   161   160   171   187   199   206   212   212   207   202   186 
  158   133   131   140   143   143   141   140   142   142   140   136   134   135   132 
  129   128   128   129   130   129   125   119   119   123   125   120   123   127   122 
  106    99   101    89    74    72    85   111   143   167   169   154   130   112   104 
  122   188   230   242   243   238   233   238   242   242   245   245   244   241   241 
  237   233   228   210   177   138   128   142   143   142   140   139   139   138   136 
  133   134   139   137   130   129   131   131   130   130   129   125   119   121   132 
  130   127   123   112   100    84    68    61    78   123   160   182   186   169   128 
   77    45    44    45    59   123   165   190   194   194   193   210   239   246   249 
  250   250   251   251   250   246   239   217   173   128   122   144   140   138   136 
  135   137   138   134   131   133   136   138   135   133   134   132   129   129   130 
  129   127   127   133   131   130   132   126    89    56    48    69   135   188   202 
  196   173   117    51    23    17    26    22    13    32    77   106   106    93    71 
   91   144   168   177   188   197   206   221   225   219   201   172   132    98   111 
  137   133   135   133   132   134   135   133   130   131   133   135   136   136   136 
  133   127   119   112   114   132   147   145   144   154   159   118    56    36    34 
   89   175   206   205   181   133    55    15    11    11    14    11     4     7    42 
   67    47    28    15    16    29    41    46    56    70    75    88    88    89   110 
  107    84    69   100   123   128   131   131   130   132   134   132   130   131   132 
  134   138   148   157   149   113    78    67    82   134   167   173   179   188   178 
  103    36    22    19    85   173   203   197   162    93    22     8     9     9     7 
    7     3     1     7    15     7     4     5     6     4     6     7     8    10    10 
   13    11    11    31    46    43    51    94   105   113   121   127   128   130   132 
  131   131   131   132   137   163   200   218   190   106    68    83   127   166   178 
  189   199   206   192   100    27    13    15    60   145   184   191   152    72    12 
    6     7     7     6     5     4     1     1     1     1     2     4     6     5     6 
    8     8     7     7     7     5     3     4     9    20    57    95    97    98   102 
  111   118   124   129   130   130   131   134   143   189   237   245   211   108    79 
  130   164   175   181   202   213   224   218   115    23    12    13    38   117   170 
  186   151    66     9     5     6     5     4     5     8    12     8     3     3     8 
   18    17     7    12    22    15     8     6     5     4     2     2     7    32    77 
   99   105   100    97    97    99   106   118   125   129   132   134   141   186   234 
  236   201   111   107   147   142   148   182   210   220   240   233   142    47    30 
   13    20    87   157   173   146    70    10     5     6     3     3     7    32    68 
   55    35    31    34    26    16    20    30    32    17     8     5     4     3     3 
    8    27    65    87   104   113   109   109   111   104    99   100   107   117   126 
  130   127   152   193   200   187   155   134    99    71   101   177   210   227   247 
  232   149    70    35    12    11    54   136   167   150    90    19     5     5     2 
    4    11    68   160   160   133   123   120    84    41    34    22    15     7     4 
    3     7    16    29    50    72    86    90   102   113   119   133   128   108    98 
   98    97    99   105   113   105   102   132   156   168   156    98    46    24    69 
  170   211   230   249   234   156    81    41    11     9    29   106   161   157   120 
   48    10     4     4     7    16    79   183   220   212   198   173    90    27    15 
    8     5     3     3     7    24    50    70    83    87    89    91   106   124   137 
  117    68    48    53    80    98    96    93    94    90    93   119   125   145   123 
   57    24    16    54   154   202   224   246   234   159    88    53    15     7    15 
   73   145   158   144    95    39    20    38    54    57   111   178   192   169   141 
   97    34     7     4     3     5     6     9    30    47    64    83    88    86    86 
   89   115   142   136    77    42    32    31    49    92   102    97    94   105   120 
  102   104   131    84    35    20    15    42   130   182   207   236   230   157    83 
   61    30     8    10    45   123   158   158   128    86    69   108   147   139   124 
  118    94    63    39    18     5     2     2     4    10    10    30   105   127    94 
   87    87    87    87    90   112   125   134   115   104    90    67    51    81   117 
  116   109   101    85    68    97   107    46    21    17    12    29   111   174   188 
  211   217   148    78    65    42    11     7    22    89   140   153   138   111   101 
  140   170   148    91    40    16     6     3     2     2     2     5     9    12    16 
   64   141   186   163   105    87    88    88    90   107   111   161   190   197   192 
  169   128    99   123   129   111    65    35    48    96    80    29    17    12    10 
   22   100   176   185   190   188   122    64    63    42    10     5     9    55   122 
  156   146   117   118   138   142   122    73    20     2     1     1     1     4     8 
   11    14    11    14    53   105   166   197   141    92    85    85    88   108   128 
  171   191   200   206   202   177   131   123   128    98    36    10    42    98    71 
   27    18    11    10    18    88   169   185   184   177   100    31    27    23    14 
   15    16    36    95   131   127   110   122   131   105    85    49     9     1     1 
    1     2     8    10    12    21    19     6    15    42    94   155   151    96    84 
   83    86   111   129   123   113   120   150   184   180   138   112   119    86    43 
   18    42    98    70    22    15    10     8    15    75   150   167   166   159    90 
   19    18    49    84   115   135   127   106    89    86    90   111   117    98    78 
   45     7     1     0     1     5     9     8    12    41    51    18     3     4    17 
   54    82    64    77    82    86   108   100    59    60    68    82   150   177   136 
   98   104    96    97    73    56    92    73    19    11     9     7     9    55   134 
  156   144   138    78    37    82   157   207   233   243   236   205   160   143   128 
  111    99    92    81    43     7     1     0     2     7     6     5    24    55    61 
   43    13     1     1    16    48    35    58    79    83   100    74    41    54    74 
   87   160   186   139    82    82   109   132   120    80    94    86    29    12    10 
    7     8    42   115   148   141   134   118   154   212   242   250   252   249   238 
  208   178   170   163   128    82    63    54    26     4     1     0     3     5     3 
   12    42    56    56    54    32     5     2    11    37    27    43    72    77    94 
   65    36    47    90   149   208   204   142    76    97   145   158   140   100   102 
  104    47    16    12     9    10    39   101   133   147   178   216   244   253   253 
  251   243   231   221   201   172   157   142   109    76    42    22     7     1     0 
    0     1     2     6    27    48    49    50    54    48    25    27    35    60    65 
   70    71    73    91    63    31    41   127   215   236   216   147   110   165   187 
  179   160   126   109   117    67    18    12    11    14    42    85    97   120   180 
  237   252   251   245   230   208   189   182   165   143   123    96    65    43    19 
    5     1     0     0     0     0     5    20    37    43    43    50    66    70    65 
   87    99   123   139   125    88    75    98    71    33    56   174   244   245   215 
  142   149   201   204   189   168   144   117   121    89    27    14    25    42    56 
   70    71    74   105   188   232   230   213   189   161   140   127   106    83    61 
   42    23    11     4     1     1     0     0     1     3    16    33    36    32    30 
   33    34    41    80   101   105   138   166   160   118    80    89    82    39    86 
  203   249   248   194   105   157   216   218   200   177   151   125   113   101    46 
   52    86    78    71    69    64    56    48    83   152   172   156   129   103    82 
   56    31    16    10     5     2     1     1     1     1     1     1     2    18    43 
   38    19    11     6     4     8    41    92    67    51    97   154   147    80    45 
   72    84    49   116   204   245   241   149    78   153   219   225   210   184   153 
  126   107   105   100   133   108    75    67    51    32    19    10    14    50    82 
   78    61    48    30    10     2     1     1     0     1     1     2     2     1     1 
    1     7    34    47    26     9     7     8     8    10    34    54    24     7    36 
  107    97    39    17    68    61    52   125   196   234   208   113   120   199   232 
  230   213   178   139   108    93   110   159   156    92    62    47    22     6     3 
    2     3     7    15    17    14    10     5     1     1     0     0     1     3     4 
    4     2     1     1     1    11    28    25    18    14    27    52    37    13    21 
   40    24     6    12    69    75    50    41    72    43    53   117   179   203   161 
  136   201   240   246   230   203   158   107    54    42   104   161   150   143   130 
  115    78    23     5     8     9     5     2     1     1     1     1     1     1     0 
    0     2     3     3     2     1     1     1     1     8    16    20    25    31    65 
   91    43    21    34    48    42    23    12    49    86    65    65    79    43    66 
  113   163   183   178   213   247   253   248   221   176   125    58    11    10    76 
  122   153   219   233   228   197   120    51    23    14     8     3     1     0     0 
    0     0     0     0     1     2     2     1     1     0     0     0     2     6    13 
   28    34    35    64    84    42    32    38    44    46    36    26    59   116   103 
   83    82    53    78   123   145   180   209   241   253   255   243   200   136    70 
   18     2     3    31    82   142   213   241   245   229   196   137    60    20    12 
    9     5     2     1     0     0     0     0     1     1     1     0     0     1     1 
    2     4     8    14    24    28    26    34    48    42    37    38    42    43    40 
   46    85   113   123    94    83    84   124   132   129   162   214   241   250   252 
  237   178    86    18     2     1     1     5    29    99   179   209   189   141   110 
   94    69    38    17    12    10     7     4     2     1     0     0     1     0     0 
    1     1     2     4     6     9    12    16    23    37    45    47    49    47    46 
   47    47    47    48    47    63    78    92    88    84    95   146   138    89   112 
  176   215   235   240   221   146    50     4     0     0     0     1     5    41   116 
  138    89    74    72    65    52    57    40    12     8     6     3     1     0     1 
    2     2     1     1     1     2     4     8    10    14    18    23    31    43    53 
   57    56    54    58    62    58    62    67    65    68    77    84    84    82    81 
  112   135    73    43    95   163   204   210   171    98    27     1     0     0     0 
    0     2    14    60    75    29    42    68    72    75   118   116    40     6     2 
    1     1     2     6    13    12     6     2     4     7     9    13    17    21    27 
   35    40    45    49    53    56    61    68    69    69    76    82    83    88    92 
   84    83    80    71    78   112   101    31    32    92   144   146   104    55    15 
    2     1     1     1     2    20    56    73    66    20    17    50    70   113   202 
  208   127    35    14    14    15    23    26    21    14     9     7    11    18    23 
   26    29    33    37    40    43    47    50    52    57    63    66    71    79    83 
   86    86    88    91    88    85    78    70    68    75   101    62    22    31    70 
   77    50    28    22    15     6     4     5    12    51   101   105    81    32    13 
   27    64   158   240   247   212   104    30    22    21    23    25    43    47    38 
   24    52    87    93    80    44    40    41    42    47    51    53    57    63    65 
   70    79    86    86    85    85    86    86    89    89    75    62    68    71    79 
   98    80    43    30    32    17    19    42    63    60    63    72    91   121   139 
  133    95    57    24    17    75   187   242   252   238   135    26    14    19    31 
   57    73    59    49    48   111   148   129   104    53    42    48    70    99    77 
   64    62    66    70    77    84    87    89    89    87    87    86    91    92    73 
   62    72    83    78    80    98    95    71    63    55    34    42    79   104   119 
  117   124   125   123   144   132    72    25    28    93   179   222   240   225   120 
   25    12    29    61    74    74    70    56    61    94   107    95    82    59    47 
   68   136   166   144   124    82    70    75    82    87    89    90    93    90    88 
   86    87    86    76    72    76    76    77    79    77    84    89   118   122    75 
   38    39    51    57    58    76    81    69    97    93    48    28    37    75   141 
  191   206   173    71    22    15    32    83   150   178   183   169   150   162   176 
  174   152   102    65    69   102   111   144   166   120    79    84    86    90    93 
   94    94    91    89    87    87    86    83    82    82    79    78    81    77    78 
   81    91   100    80    59    55    58    61    67    75    77    69    70    60    44 
   36    35    44    82   144   176   153    67    25    49   100   167   224   241   240 
  207   123    92   105   126   156   175   142   123   103    96   106   126   107    84 
   88    92    93    94    94    92    90    88    88    90    88    90    92    91    91 
   96    95    90    90   100    85    82    76    72    70    71    71    72    73    69 
   65    58    50    43    37    33    32    40    81   124   138    97    62   100   166 
  212   227   227   222   199   157   125   130   155   173   169   164   191   149    92 
   92   100    91    89    91    94    95    95    95    93    91    90    91    91    88 
   96    98    98    97   102    99    87    83    86    83    81    77    77    78    75 
   73    76    78    78    75    66    53    41    33    29    29    26    35    59    86 
   97   101   118   146   164   166   159   148   129   123   116   112   120   113   110 
  116   147   140    94    95    96    91    92    90    92    93    95    95    94    92 
   93    96    95    91   101   102   101   102   102    93    85    86    86    81    81 
   85    91    91    88    88    90    88    89    85    73    60    47    35    27    30 
   32    25    23    35    53    71    87    88    98   100   100   100   101   105   105 
  102   107   107   107   109   110   107    97    99    96    95    92    89    90    92 
   93    93    94    93    94    97    93    92   100   102   102   101   101    96    94 
   90    85    89    98   104   102    99    95    91    86    83    83    83    76    67 
   54    42    40    42    39    33    34    49    73    87    91    92   103   111   113 
  114   114   114   110   111   108   105   106   106   104   102   101   100    98    95 
   92    91    92    94    94    93    92    93    93    91    88    90   103   103   101 
   99   100    98    98    95    99   108   112   108   101    99    96    91    84    86 
   85    78    72    70    62    62    64    55    55    61    68    77    95   103   103 
  108   117   121   120   119   111   105   105   112   117   114   110   111   111   105 
  103   103   104   101    98    98   101   103   103   102    99    98    99    96    87 
   91 
