P2
# Creator: University of New Mexico Scheme 2.7
16 16
255
  143   143   138   133   122   111    98   104   124   135   135   139   142   143   143 
  142   159   163   166   159   147   137   131   129   129   130   132   134   136   141 
  148   154   144   154   166   169   167   166   158   150   144   144   141   140   140 
  134   133   134   140   147   153   156   154   160   166   168   162   153   142   138 
  144   145   146   139   155   159   164   162   153   141   137   147   158   162   154 
  144   141   137   168   169   176   177   174   164   157   152   145   135   131   143 
  148   159   153   135   182   206   170   175   173   170   165   159   166   128   139 
  151    99   126   164   182   212   206   119   152   162   187   188   170   214   118 
  135   119    25    41    50    46    54    71   124   131   131   158   160   134   231 
  133    90   116    64   108    81    23    41    81   135   159   146   112    82    68 
  185   128    92   145   130    74    25    23    79   115   107   154   181   143    85 
   48   141   193   218   179   100    24    11    39    56    91    99   182   227   212 
  132    91    93   141   135    73    25     5    21    37    61   101   104   183   255 
  187    95   156   113    38    14     2     0     5    29    50    53    81   110   136 
  178    93    37   101   111   107    30    19    27    35    52    71    84    99   103 
  101    97    73    83    96    98   171    93   118   126   116   114   106   108   111 
  118   117   112   103   100    85    66   100   129   177   161   155   139   122   119 
  118 
