P2
# Creator: University of New Mexico Scheme 2.7
64 64
255
  196   196   198   196   193   195   197   197   198   198   198   193   190   192   199 
  197   195   198   198   200   197   193   198   198   195   197   200   197   196   196 
  194   196   197   199   196   194   199   199   200   196   197   199   197   195   199 
  197   199   203   197   201   194   194   193   197   203   198   196   196   194   192 
  198   197   193   197   195   194   196   201   195   196   196   201   196   199   197 
  201   194   194   190   194   192   193   199   199   193   198   198   196   194   199 
  201   200   194   195   195   196   198   198   195   197   196   205   200   198   199 
  200   195   197   198   199   198   198   198   195   202   196   194   196   199   201 
  199   196   196   194   196   200   196   199   197   196   197   196   196   193   202 
  195   196   189   191   190   186   185   183   166   191   192   195   194   202   199 
  197   191   199   201   199   196   194   195   196   193   195   196   197   197   203 
  198   197   197   203   200   199   198   199   198   200   196   200   197   195   197 
  196   196   200   199   195   199   195   197   195   198   192   197   198   199   198 
  199   193   197   196   195   199   197   168   167   164   162   162   160   188   197 
  166   197   200   195   197   196   199   202   194   196   193   195   197   194   180 
  196   178   197   195   197   199   199   198   200   198   197   195   200   196   186 
  194   200   195   197   195   195   199   196   195   193   197   196   194   198   201 
  191   203   197   197   196   199   196   191   192   193   187   177   152   152   144 
  149   183   153   153   191   185   189   198   194   196   197   198   199   194   197 
  192   196   199   179   113   179   182   195   196   198   200   200   196   200   195 
  197   197   188   194   198   193   202   196   198   203   194   196   197   199   199 
  200   198   193   197   200   194   196   196   196   200   197   197   190   187   164 
  157   157   151   151   152   148   156   154   154   169   188   194   196   197   198 
  197   201   199   193   197   193   198   153   118   106   188   196   193   197   194 
  184   199   195   198   196   197   200   196   195   195   196   201   197   196   195 
  203   199   198   201   199   195   197   195   198   190   192   197   198   197   200 
  194   204   152   159   153   146   151   147   148   156   146   163   159   167   190 
  195   194   195   198   197   199   195   196   192   197   195   167    63   142   162 
  197   196   190   187   194   191   197   197   195   202   195   196   196   196   197 
  196   200   193   196   192   198   199   190   198   197   195   201   196   199   194 
  193   198   200   194   194   161   186   149   150   147   144   148   145   150   178 
  156   186   193   193   194   202   198   193   195   198   224   194   191   197   200 
  157   130    54   178   191   197   193   197   197   196   196   198   198   196   197 
  199   197   198   199   198   197   198   195   193   198   190   193   200   197   203 
  196   198   198   201   194   197   188   190   179   175   149   156   149   150   150 
  150   149   152   153   183   186   188   198   201   198   201   194   199   223   195 
  199   195   195   198   165    92   104   131   183   199   197   198   198   197   195 
  195   199   196   197   197   197   197   196   198   197   197   203   198   196   191 
  195   182   206   194   196   199   198   193   199   197   189   170   172   156   151 
  148   150   151   155   151   149   154   155   165   165   201   196   198   199   198 
  193   198   197   196   194   200   196   195   177    98    82   124   180   196   198 
  192   196   194   197   198   196   197   199   195   192   205   198   195   195   202 
  199   199   201   196   181   198   198   197   197   194   196   201   196   196   193 
  163   157   158   150   150   147   151   147   155   149   149   169   153   186   192 
  195   194   199   199   194   197   196   199   195   196   199   197   159   139    69 
  123   166   197   199   199   192   194   194   196   197   198   195   197   201   194 
  204   198   198   197   197   198   198   202   191   200   197   199   197   197   190 
  196   187   181   168   157   139   140   154   153   154   150   152   149   149   153 
  148   172   186   195   200   193   194   197   200   193   200   198   195   198   195 
  199   170    88    98   101   173   195   198   199   198   194   194   203   199   197 
  199   201   197   198   202   196   199   198   202   196   197   201   196   193   195 
  198   200   196   194   175   188   152    99    73   104   121   136   144   154   156 
  146   149   150   148   158   152   176   195   193   196   193   196   198   197   196 
  196   196   189   204   188   170    99   103   125   174   193   193   200   197   200 
  197   199   201   191   200   199   196   196   197   200   196   201   198   198   201 
  191   198   201   198   198   195   200   184   192   179   131    48    52    47    70 
   96   118   149   134   182   147   148   152   152   150   160   168   198   198   195 
  195   195   197   198   198   191   197   197   195   164   133    93   148   172   189 
  195   198   204   197   199   198   194   195   199   199   195   199   196   198   194 
  196   199   200   198   195   197   197   201   201   200   194   170   191   184   121 
   54    18    41    99    50    88    70   133   136   174   151   151   143   151   150 
  188   178   201   192   197   196   198   198   196   196   197   197   185   154   115 
  124   109   145   184   197   192   193   183   192   192   194   202   196   197   201 
  198   197   196   196   198   197   197   198   203   199   195   203   198   197   195 
  178   163   153   149    67    17    81    23    64    26    65    62    94   140   140 
  146   148   149   154   154   192   163   200   192   199   198   196   196   199   197 
  196   174   127   118    89    44   111   170   188   186   162   163   157   191   192 
  193   196   194   195   198   196   197   197   196   197   198   197   197   195   204 
  199   194   199   195   157   155   165   126    71    73     0    37    30    39    13 
   26    52    72   126   138   140   149   147   153   152   192   163   201   197   197 
  197   201   196   196   198   188    98   100    35    33    87   161   170   166   159 
  155   159   161   192   197   197   192   198   206   196   195   195   198   196   198 
  196   196   196   193   201   197   197   194   151   151   148   139    98    21    64 
   17    16    21    23    15    16    48    67   113   143   135   148   150   155   143 
  193   184   201   196   194   195   193   199   180   154   157    19    45    79    96 
  155   164   162   192   183   167   161   183   197   197   198   202   202   210   202 
  196   198   196   191   196   196   195   197   198   198   196   196   158   148   146 
  145   129    72    27    18    28    27    34    37    25    28   117   105    80   145 
  144   150   146   154   154   192   194   199   197   197   197   168   192   116    59 
   62    77   120   123   131   172   195   221   217   161   166   182   196   197   202 
  201   233   228   209   199   202   203   193   192   197   195   199   196   197   194 
  197   159   154   150   148   138   124    43    36    21    18    50    50    32    98 
  101    89   103    83   140   140   147   148   155   187   194   196   194   196   195 
  197   135   134    49   111    75   111    92   137   189   234   232   196   171   162 
  182   194   205   201   239   242   231   208   222   221   193   197   195   197   197 
  197   203   197   197   196   155   148   148   151   148   126   100    77    37    25 
   27    83    96    60    79    82    29    60    66   132   142   147   157   166   194 
  202   196   190   197   188   181    86   123   107   143    40    64   144   221   236 
  225   191   157   156   189   196   201   239   240   237   234   215   201   208   202 
  195   197   195   207   200   198   200   197   201   148   145   150   151   146   140 
  143    95    57    12    41   102   108    69    33    16    30    20    48    76   136 
  150   152   163   179   185   185   190   174   195   196   125    84   156   130    74 
   83   152   211   237   213   167   154   156   161   194   231   240   244   243   213 
  204   230   197   195   195   197   203   194   198   196   198   197   190   150   147 
  149   148   146   151   144   138    65    47    50    35   102    73    37    10    14 
   47    89    82   101   130   148   155   160   158   165   163   170   220   192   137 
   71   136   138   131   114   148   211   206   183   163   152   156   166   196   233 
  232   239   232   238   233   199   204   199   196   195   197   195   201   191   200 
  185   167   146   152   146   151   149   146   148   138   137    64    47   131    23 
   33    33    29    56   106    77    82    58    87   127   138   148   148   155   149 
  170   212   200    75   121    81   145   148   127   153   170   180   180   160   154 
  160   182   226   196   209   205   234   235   226   203   197   198   197   196   201 
  201   204   193   167   179   156   147   148   154   144   150   154   150   150   136 
  130   113    21    68    26    53    84   100   109    81    46    47    31    61   129 
  137   148   149   155   172   172   137    98   107   115   102   155   123   127   162 
  172   179   162   152   158   207   195   190   166   193   193   202   195   202   197 
  201   204   200   210   236   203   198   167   155   152   147   148   151   153   145 
  151   156   150   150   141   103   102    15    51    52   100   130   101   126   121 
   57    33    31    68   127   150   156   165   166   169    89    73   115   117   122 
  147   136   109   154   171   155   183   154   159   187   164   189   162   163   165 
  168   198   196   197   204   198   228   236   221   232   181   183   150   146   150 
  156   146   150   146   153   150   148   149   148   135    88   103    29    47    56 
   68   127   140   116   118    83    57    30   118   131   160   185   216   168    59 
   69    76   121   129   165   124    82   136   165   194   152   156   179   157   192 
  151   183   152   149   191   185   204   196   212   225   212   209   237   205   200 
  154   156   150   155   147   149   144   156   149   153   149   139   150   145   106 
   62    93    21    18    57    72    78    82    99   119    89    71    35   137   152 
  227   214   135   101    46    61   122   119   138   122    76   132   183   160   160 
  156   191   169   181   195   160   169   185   167   200   232   233   198   233   193 
  231   204   203   197   168   152   149   147   151   148   151   146   151   149   151 
  151   139   142   136    89    36    44    33    61    66    71    70    76   100    99 
   91    67    48   186   197   210   107    40    73    89    62   112   142   114   100 
  130   166   169   158   179   159   195   190   198   193   190   183   173   236   240 
  190   243   172   241   194   214   222   184   185   150   151   144   149   151   145 
  151   147   151   148   150   146   147   124   118    67    42    37    74    99    82 
   95   100   105   113    99    99    78    90   191   119    85    65    77   108    82 
  120   119   117   100   117   169   166   156   184   166   190   200   198   198   193 
  169   194   230   195   237   193   234   192   240   199   197   204   159   162   151 
  145   148   153   154   146   150   149   154   147   146   145   146    75    70    30 
   44    35    52    89    79   102   111   112   117    86    88    75   109    73    71 
  108   113   111   116    97   110   146    79   119   161   165   187   161   195   189 
  192   188   184   184   183   206   189   240   203   218   198   237   195   203   198 
  186   187   147   151   147   149   151   158   151   149   148   137   148   147   148 
  137   126    60    19     5    21    45    36    47    44    54    86    95   107    59 
   96    58    72    92   113   112   135   118    75   126   119   116    91   161   198 
  185   170   183   194   183   162   166   164   195   173   221   207   206   216   227 
  186   196   188   191   189   157   155   149   152   147   148   150   151   147   137 
  152   148   148   145   149   152    66    16     4    12    35    41    42    41    45 
   58    60    33   106    91   123   148    60    95   133   112   104   138    98   132 
   86   100   147   198   187   198   184   165   156   157   146   226   160   192   226 
  178   229   226   170   168   161   185   165   155   154   149   148   150   147   147 
  147   146   149   149   144   155   145   147   161   131    86    42    10    39    47 
   56    60    55    56    52    48    63    61    96   177   171   117    82    98    99 
  132   102   133   101    83    80   157   191   199   191   190   154   138   138   178 
  152   213   227   168   227   214   167   162   149   154   149   153   143   148   150 
  148   150   148   151   147   147   149   152   151   145   147   151   159   147    95 
   61    97    52    45    61    60    63    47    56    68    81    63    86   151   161 
  152    72    71    95    51   125   139    98    92    84   152   199   196   194   157 
  156   143   149   137   165   222   195   198   195   163   158   148   149   147   149 
  146   148   147   146   153   148   148   150   152   148   148   153   150   148   152 
  146   154   169    83    55   103    82    27    35    36    22    17    45   101   102 
   56    91   100   141   142    98    59    56    92    95   134   134    94    85   154 
  231   199   164   149   147   143   149   163   206   221   168   190   153   154   145 
  155   151   150   151   148   147   149   153   146   150   151   148   145   149   152 
  150   151   151   145   147   163   143   131    79    47    75    88    45    27    26 
   16    38    36    76   104   149   158   129   136   162   126   107   119    88   124 
  114   104    78   162   217   203   161   140   124   150   154   195   221   167   197 
  151   154   146   131   152   147   152   149   149   148   151   148   146   153   151 
  150   147   146   152   160   156   154   154   167   185   187   132    71    55   125 
  132   120    95    53    61    28    61    71   133   167   166   129   165   162   183 
  154   141   145    65   112    73    78   143   210   196   131   148   155   145   168 
  196   194   195   147   155   148   129   151   146   147   147   155   145   150   148 
  150   148   153   151   150   150   148   159   147   163   176   194   190   199   199 
  188    90    84    72   121   145   136   150    75    64    85    52   127   176   129 
  124    79   183   176   184   155   148   105    52    64    85   133   202   155   157 
  144   151   155   174   212   184   157   151   147   150   143   150   148   147   150 
  145   155   149   149   149   149   148   148   152   151   148   150   151   154   213 
  193   205   210   231   220   183    48    27    83   150   145    87   120   121    55 
   95   100   126   181   159   137    79   130   136   154   121   127    42    42    33 
  129   150   164   134   149   153   161   192   166   162   155   149   148   147   165 
  147   149   151   150   151   146   149   150   149   151   145   147   150   142   150 
  147   147   165   158   185   213   220   214   236   188    66    35    70    75   100 
  141   131   113   124    48   126   183   164   169   125    95    72    97    87   116 
   94    80     9    36    34   125   119   138   144   141   186   167   160   151   152 
  154   164   161   162   171   148   155   151   149   147   146   150   158   144   153 
  147   141   150   146   158   157   161   163   174   175   180   196   171   166   140 
   56    24    56   118   121   149   166    30    95   144   172   152    77    91   142 
  154   146   153   119   101    44    44     3    17    48   104   104   118   146   156 
  178   154   159   166   196   196   194   196   197   169   166   159   156   149   148 
  157   147   146   153   148   146   159   164   170   191   197   196   199   199   180 
  174   178   169   157   109    44    37    84   155   168    93    65    59   137   158 
   80   102   168   174   190   181   184   166    70    60    21    10    18    21    58 
   94    96   136   147   162   164   197   227   223   228   234   231   227   219   192 
  194   166   155   157   150   150   149   149   145   152   160   174   186   219   224 
  227   220   222   220   216   214   183   180   167   104    49    62   144   106    83 
   87    52   120    89   171   177   172   180   142   165   146    95   118    84    21 
    6     5    36    41    57    99   110   150   161   216   235   238   245   244   243 
  248   238   239   227   193   184   175   150   149   151   149   153   151   137   154 
  171   168   189   223   201   203   206   232   239   208   213   210   198   182    99 
   76    32    52   124    92    92    67   182   181   185   171   132   102    71   121 
  169    90    86    28     6    10    21    17    47    88   140   149   175   224   237 
  241   241   241   232   233   233   231   226   197   168   151   150   149   134   148 
  155   144   152   148   148   154   164   160   169   184   196   201   200   227   227 
  229   228   199   168    96    16    83   111   115    96   132   170   179   169   117 
   57    83   153   166   133   132    20    22     6     1    13    59    36   103   163 
  196   205   196   212   235   239   209   209   195   198   197   183   178   144   140 
  134   112   140   111   144   155   148   150   148   147   150   150   154   155   161 
  184   192   200   207   219   233   231   220    93   153    45    96   150    65   153 
  162   146    83    86   131   127   162   139   138    58    31     6     5    30    29 
   29    93   180   220   229   227   206   176   210   226   235   166   167   162   153 
  163   121   127   115   108   116   100   109   137   136   145   152   149   148   147 
  145   148   149   160   155   159   164   183   189   211   239   218   236   116   122 
  118    53   113   120   112    70   115   132   134   139   109   104    77    57    31 
    7    16    29    41   111   205   219   241   243   237   195   192   194   230   195 
  200   147   149   144   112   131   101   101   104   102   102   105   115   122   146 
  150   151   150   150   148   151   158   164   161   166   159   169   188   183   221 
  250   227   228   206    87   108    85    46   108   134   128   152   108    95    61 
   74    49    57     9    36    29    39   165   213   217   249   240   242   234   205 
  171   178   212   228   159   154   149   140   120   107   109   102   104   100   103 
  103   117   139   141   149   151   145   148   158   154   192   189   197   199   201 
  198   197   229   233   236   248   245   222   222   105    47   126    93   122   150 
  111   174    76    51    24    42     1    35    28    71   177   212   237   227   207 
  214   220   213   208   153   160   215   187   167   150   149   142   132   105   104 
  101    98   104   100   103   141   144   146   148   147   151   148   146   186   182 
  222   232   227   230   255   241   239   243   243   246   247   239   219   174   111 
   71   114    88    79   173   153   137    56    69    24    35    26    65   171   212 
  237   243   219   160   163   170   171   155   161   160   159   185   166   151   142 
  141   130   104   102    99   101   101   100   101   152   150   149   144   149   147 
  145   156   142   191   191   202   226   240   219   226   221   220   224   223   223 
  222   192   180   138    93    86    94   138   147   151   141   136    71    45    62 
   73   135   184   228   243   240   206   142   132   149   146   148   146   153   158 
  159   154   147   144   123   104   108    98   102   102   102   101   101   149   155 
  150   149   108   143   146   137   157   153   162   168   170   177   170   171   180 
  176   180   187   180   195   186   176   163   128   134   184   157   140   148   149 
  131   101    95    93   131   136   146   221   231   240   206   147   134   150   149 
  148   147   152   152   148   147   149   141   113    99   101   104   100   103   104 
  105   108   153   143   153   111   142   144   151   148   149   171   146   147   150 
  149   149   151   161   168   175   195   213   167   196   210   187   167   179   157 
  159   155   149   142   134   114   130   142   137   125   138   137   219   218   192 
  144   144   137   149   140   147   148   152   149   151   143   137   107   103   105 
  103   101   107   104   116   133   152   152   148   147   151   153   148   149   164 
  146   149   146   147   149   152   158   184   214   206   211   200   194   193   149 
  144   169   153   152   148   150   145   145   117   121   144   145   136   107   136 
  174    99   145   197   157   118   145   110   151   140   152   146   149   149   143 
  116   109    98   103   100    99   107   131   143   139   150   151   147   152   154 
  148   150   149   148   147   145   148   146   150   148   180   209   192   177   170 
  169   168   150   144   132   138   142   143   140   135   140   124   101   131   129 
  146   131   119   107   142   139   100   149   165   132   100   140   103   138   136 
  138   139   139   136   104   102   103   102    98   106   114   142   147   149   148 
  149   149   117   148   152   146   147   151   147   146   147   151   147   156   160 
  163   164   155   138   151   148   149   138   122   111   138   136   115   111   114 
  102   113   107   115   117   135   109   109   114   162   112   139   179   129   113 
  100   113   108   114   116   116   133   107   105    99   101   110   102   106   137 
  142   148   148   140   142   154   145   107   147   149   146   151   151   148   151 
  148   149   149   152   149   148   134   148   149   147   138   137   113   109   107 
  104   106   103    96   102   101   101   103   109   105   109    96   113   138   157 
  106   178   142   112   101   100   101   102    97   107   107   109   109   100   103 
  100   106   116   143   148   147   151   118   147   146   142   139   147   145   150 
  150   149   148   150   148   150   148   147   150   147   149   146   146   141   143 
  107   107   102    97   102    97   100    98    98   102   101   101   100   101    95 
  100   105   121   158   108   125   158   120   101    95   102   101    98    97   104 
  126   103   101   107   110   110   140   143   151   152   151   120   138   149   146 
  149   140   152   148   150   146   148   150   152   148   148   148   148   109   147 
  150   144   137   108   107   103    99   100   100   102    96    99   101   103    97 
  103   101    94    97    97   100   110   131   135   105   170   124   104    99    98 
   99   100   100   109   102   108   111   111   115   143   141   149   151   152   150 
  116   138   151   151   147   155   150   146   145   151   151   150   150   152   150 
  148   104   147   149   137   140   105   106   104   101   104   100   102    99   102 
  102   102    99    96    97   106   103   100    99    97   109   119   148   108   159 
  141   110   101   100   100   101    99   101    98   108   107   136   142   139   148 
  152   149   145   152   112   143   150   145   149   147   143   149   151   147   152 
  148   148   148   148   147   148   150   147   144   104   105   100   100    95   103 
  102    99   102   102   101   102   100    99    97   100    99   103    99   100   102 
  122   149   127   116   154   126   103   102   101    99   102    96   100   101   138 
  135   147   145   151   148   148   147   149   120   142   150   151   143   147   151 
  146   148   148   148   150   149   152   147   147   150   144   145   132   104   102 
  104    94   100    98    98   101    99   100   104   101    99   103    99    98   101 
   97   103    97    97   106   140   139   117   167   131   102   102   106   102    98 
   99    94   108   104   151   139   149   149   149   150   150   148   142   143   148 
  148   154   152   144   149   148   148   149   152   152   152   147   145   148   142 
  119   102   107   101    99   100    97    99   100   109   110   102   103   103   102 
  101   104   101    97   102   101    97    90   109   127   147   138   159   135   100 
  101   102   103   101    98    97    98   129   117   143   144   145   150   151   149 
  150 
