P2
# CREATOR: GIMP PNM Filter Version 1.1
64 64
255
216
211
211
208
205
205
204
200
194
193
194
193
194
191
191
189
188
190
189
190
189
196
197
197
196
199
197
196
199
200
201
199
198
200
198
200
200
199
197
198
199
201
203
202
206
208
208
210
211
210
209
207
206
206
205
202
201
199
200
199
201
200
200
197
213
211
211
208
205
203
199
198
195
193
192
191
187
189
189
185
188
191
191
188
193
193
195
194
194
196
195
195
199
196
196
197
195
197
196
198
198
197
194
197
196
198
200
202
203
207
208
209
209
207
206
206
205
203
205
201
200
200
198
200
201
199
198
198
212
210
207
206
203
203
198
197
196
193
188
186
187
187
185
181
186
187
187
190
191
194
193
193
191
194
194
196
197
197
198
197
196
199
195
196
195
195
194
198
197
198
198
200
201
205
208
208
207
206
206
206
207
205
203
204
204
198
196
198
201
197
197
199
210
208
205
203
203
199
200
197
193
191
183
183
183
182
183
184
185
185
184
186
189
191
190
193
190
190
193
194
196
198
195
195
193
193
194
194
193
193
195
199
198
196
198
198
201
205
206
207
205
206
206
205
205
203
203
204
202
199
198
199
200
199
200
198
204
205
203
199
200
197
197
191
186
188
187
182
181
179
180
186
183
183
185
186
189
191
191
193
193
193
191
192
193
193
195
196
203
77
201
193
194
193
194
199
195
199
199
197
201
200
205
206
206
204
206
205
204
204
205
202
201
199
198
200
200
197
198
200
204
201
197
198
197
196
192
194
188
182
182
183
179
181
177
179
181
181
183
184
189
186
191
191
188
192
191
196
194
197
199
198
201
48
119
195
195
196
196
196
196
200
198
196
201
203
201
204
205
205
204
207
208
206
203
203
202
199
198
199
199
200
197
198
202
200
198
196
196
195
191
188
183
182
182
179
181
182
179
181
183
184
184
184
190
191
191
192
191
192
192
195
196
197
197
198
185
16
154
198
200
197
198
196
196
195
199
197
197
200
202
203
208
206
206
207
207
206
206
204
204
200
197
199
199
198
198
196
201
197
192
194
192
192
187
182
185
181
182
178
179
181
184
179
185
183
187
186
192
191
189
190
194
194
192
196
196
192
197
197
189
127
29
200
201
199
197
194
198
200
197
198
199
201
203
205
206
207
206
209
207
207
207
205
199
198
199
196
201
198
196
195
199
197
194
187
189
186
186
182
180
180
179
177
180
180
181
184
184
186
185
186
194
194
194
195
193
194
194
194
195
196
192
198
196
38
96
178
201
198
196
196
199
198
195
196
197
204
205
206
206
208
210
210
207
209
209
206
202
200
198
196
195
199
199
198
195
193
191
190
187
183
186
179
179
177
178
180
179
183
180
182
182
183
184
186
191
194
193
198
194
197
196
197
196
194
192
196
203
84
83
130
198
199
197
196
196
194
195
197
199
202
204
206
208
207
211
210
209
209
207
204
203
199
196
194
199
199
200
198
191
191
189
187
186
183
179
180
177
174
175
175
179
183
183
182
185
184
185
190
192
191
196
195
196
198
198
198
197
194
195
194
197
137
89
88
200
195
195
193
193
193
193
194
198
201
205
206
207
209
210
209
209
208
208
205
201
198
197
197
196
195
196
198
192
188
188
185
190
187
182
175
172
174
177
176
177
175
178
178
180
181
187
191
191
192
194
197
197
197
196
196
194
192
194
194
203
55
131
64
205
197
191
195
192
192
192
193
198
201
205
207
208
207
208
210
210
210
206
205
202
202
199
197
197
196
196
197
188
182
186
182
72
74
112
155
175
175
173
175
175
174
175
177
178
180
186
190
191
192
196
195
192
194
195
194
192
193
193
192
192
51
123
102
205
193
191
194
190
189
191
195
196
201
205
206
207
209
211
209
209
208
206
203
198
199
197
198
199
197
198
196
186
186
186
152
31
36
20
60
52
153
174
176
174
170
176
177
177
179
183
184
189
189
189
189
192
194
194
192
191
192
192
191
194
126
88
148
194
191
190
189
186
188
190
187
193
198
203
206
207
209
208
208
208
207
206
203
204
202
199
197
199
196
200
195
184
185
186
142
24
21
37
158
37
89
50
177
178
173
172
176
177
179
183
186
190
187
190
191
190
195
190
194
194
189
189
190
164
104
156
107
172
189
190
190
186
186
185
189
192
195
202
204
204
207
205
205
206
204
204
199
203
201
200
197
196
196
194
199
185
180
180
185
72
32
119
21
39
29
37
43
101
173
178
173
175
182
184
184
185
184
188
189
189
190
188
192
188
188
189
193
89
148
117
31
107
186
187
186
184
181
181
186
190
194
199
202
203
206
203
206
203
202
204
200
202
199
196
196
200
195
199
195
181
181
182
183
67
62
24
32
36
44
27
27
57
36
168
176
172
180
181
181
183
187
184
188
190
190
192
189
187
186
188
196
64
132
32
30
58
189
184
183
181
181
182
184
186
192
196
200
201
197
202
200
202
205
205
201
199
200
199
199
196
197
195
194
177
175
175
177
116
29
102
21
30
33
27
27
21
32
54
99
180
179
182
181
182
184
185
187
187
192
189
192
189
185
187
203
225
34
34
112
53
188
182
179
189
219
178
181
187
193
196
194
202
197
202
215
202
200
201
198
199
200
202
200
199
198
197
195
177
173
174
172
176
45
34
28
49
67
54
46
30
28
142
103
79
183
177
183
180
181
184
186
189
190
192
188
189
184
185
134
28
72
63
204
110
184
177
226
251
243
175
182
186
190
190
196
195
236
241
234
195
196
201
201
199
197
201
200
200
195
194
193
173
171
172
170
169
143
30
25
25
28
42
40
24
125
166
104
106
123
179
180
182
182
183
186
190
188
187
188
189
187
184
152
33
142
80
168
69
172
221
250
249
234
175
180
186
189
190
191
247
250
250
231
238
241
199
205
199
196
199
195
195
195
190
190
171
169
172
169
168
171
87
98
82
28
28
100
108
53
135
94
27
72
46
174
180
182
182
184
187
187
188
186
189
186
193
48
94
183
138
24
28
151
254
250
251
199
172
179
187
186
189
246
250
250
237
202
216
234
202
200
197
198
197
196
196
194
188
189
167
169
168
167
166
165
172
91
48
26
38
142
173
73
23
30
33
26
31
47
164
179
183
183
185
186
186
185
183
200
255
96
40
190
163
74
68
149
250
249
245
176
176
180
183
186
238
246
248
241
189
221
252
203
199
200
197
193
197
198
193
189
187
185
166
166
163
165
169
166
168
172
82
31
29
32
131
124
41
33
32
55
117
118
107
172
180
183
182
180
182
181
177
238
255
130
37
152
158
179
94
152
241
211
204
170
180
179
182
213
246
242
249
251
251
249
233
191
195
196
197
196
195
192
190
188
185
183
162
160
164
164
166
166
166
166
159
42
80
185
28
20
24
30
43
146
125
85
39
133
177
178
178
177
175
178
172
243
250
30
148
72
147
197
90
167
198
177
194
177
177
177
185
251
198
234
227
245
249
243
191
192
196
196
193
193
191
196
200
184
185
180
161
160
162
163
165
164
166
168
165
167
88
30
37
36
68
103
93
123
49
32
22
24
57
178
173
174
174
172
171
230
171
52
140
99
69
214
119
89
185
176
198
175
180
180
236
215
222
184
210
219
235
196
192
193
195
195
192
204
237
211
212
184
179
178
161
161
162
161
166
164
163
167
166
165
124
85
29
66
36
152
150
110
149
145
47
25
24
68
177
172
170
170
170
226
47
63
155
155
90
211
145
39
190
181
194
171
180
184
230
164
200
177
172
171
184
190
191
195
192
200
241
237
240
240
186
186
178
180
157
164
164
163
164
166
167
168
167
168
167
93
88
68
33
48
65
139
186
177
156
87
62
31
136
170
167
199
248
224
10
62
73
159
121
189
159
26
165
187
187
171
172
226
176
222
183
185
177
178
190
187
189
187
232
247
233
233
248
189
186
182
183
178
161
162
162
163
164
166
166
165
168
165
168
119
62
146
27
29
60
68
66
50
85
144
98
55
33
150
173
251
250
179
87
42
41
180
135
167
170
32
137
188
183
168
178
189
174
210
193
184
184
193
184
189
191
245
233
242
220
251
194
186
194
184
182
181
162
160
161
163
163
164
164
161
163
164
169
168
55
25
24
23
44
52
47
53
67
95
97
110
57
33
198
251
251
94
34
64
116
23
129
137
184
43
147
191
177
167
207
166
214
198
190
185
193
189
180
199
247
213
244
167
252
195
218
248
193
186
180
184
162
162
161
160
162
166
164
167
167
166
165
168
143
128
69
70
108
139
112
93
109
102
127
90
120
47
68
243
98
49
72
71
167
81
142
104
180
62
129
195
179
173
200
181
228
203
190
190
202
176
191
240
201
244
212
239
203
240
234
191
187
184
184
179
166
164
163
164
162
164
165
164
167
166
166
168
80
41
32
44
28
53
95
124
146
149
139
142
93
126
69
164
37
42
137
97
168
107
101
120
192
83
119
205
182
190
179
198
206
192
188
186
195
197
189
191
239
224
216
223
253
211
188
189
191
186
182
178
160
162
165
163
163
163
165
167
166
164
164
169
151
38
30
24
23
35
31
26
24
32
54
90
128
82
74
31
66
73
140
114
147
111
78
105
181
106
80
218
185
215
183
225
204
185
174
182
181
197
179
237
234
196
244
250
194
185
188
187
185
182
183
179
159
163
163
168
163
161
162
165
167
162
161
167
189
65
24
29
27
36
43
44
35
39
45
40
23
173
100
173
232
27
109
157
86
130
140
134
183
114
42
223
192
215
191
229
181
178
170
184
187
175
231
237
179
249
245
180
181
182
185
184
179
177
178
177
162
162
162
160
166
165
162
165
163
163
164
166
144
68
33
28
32
48
51
47
44
41
37
45
66
58
49
226
234
112
51
130
88
161
129
170
52
119
33
221
207
210
200
190
176
172
171
194
157
173
237
150
241
239
171
179
182
183
182
180
176
179
177
177
160
161
160
160
161
162
163
160
161
164
167
163
195
124
48
175
63
48
94
126
100
70
57
37
90
37
115
216
228
206
59
87
122
49
110
185
80
145
16
217
226
215
195
170
174
167
167
103
166
243
202
208
234
172
174
179
177
178
177
174
178
178
173
174
157
159
157
160
160
163
159
159
165
161
164
172
206
37
33
148
89
26
27
29
27
29
43
142
175
32
49
51
107
180
57
31
34
101
65
190
107
159
17
205
237
221
184
165
175
137
161
166
239
245
144
222
166
173
170
176
175
177
176
175
176
175
171
171
161
163
158
160
156
158
159
159
160
161
162
165
165
165
60
22
61
42
24
32
28
26
25
28
46
103
229
227
87
147
231
145
124
141
57
166
120
160
13
196
245
220
172
160
124
161
183
186
242
138
218
174
173
171
169
171
168
172
170
171
173
175
169
172
158
161
159
156
156
159
154
157
156
160
184
197
208
173
62
70
194
192
160
128
69
39
25
93
61
149
205
225
161
187
228
229
141
137
136
63
122
109
25
173
244
217
114
164
172
159
166
232
192
226
174
174
172
170
168
166
171
170
170
170
169
171
167
165
160
159
160
157
157
155
150
160
215
235
219
198
191
221
67
61
82
124
148
178
204
127
61
86
26
153
230
105
59
34
214
232
224
142
156
93
25
115
35
151
240
148
145
176
159
161
203
243
194
175
177
173
171
171
165
169
169
171
168
167
168
165
166
164
159
156
157
156
156
152
149
150
241
225
212
226
244
249
239
33
22
112
204
175
66
95
129
49
58
99
106
190
229
172
41
148
208
231
161
195
32
36
30
164
208
182
140
173
157
177
216
175
171
176
174
171
174
172
166
167
166
167
166
169
162
163
162
160
159
155
153
153
153
152
149
146
158
207
245
254
249
246
248
32
27
62
77
90
144
144
165
161
34
184
211
219
234
182
48
21
10
19
53
103
41
23
29
27
157
132
147
141
149
185
231
158
173
171
170
169
165
168
165
166
165
165
163
163
159
156
158
157
153
150
152
150
152
147
144
145
147
148
148
171
197
179
188
161
51
26
58
138
134
174
212
26
38
203
212
182
28
35
164
222
217
198
168
114
48
37
28
27
51
122
127
129
179
154
193
171
166
161
185
196
207
208
186
163
163
154
160
153
155
154
154
153
149
151
146
146
145
183
207
217
213
204
192
180
172
161
143
146
110
29
20
112
191
207
93
50
23
207
168
44
74
205
204
210
213
213
218
72
48
29
26
29
31
75
103
118
182
182
183
171
195
247
253
250
249
250
253
217
204
196
168
148
149
150
149
151
147
145
145
143
195
224
250
249
250
251
247
247
246
249
232
199
206
134
24
50
192
109
69
113
15
169
66
215
218
222
208
157
191
136
39
112
118
23
32
23
56
43
63
115
132
175
169
237
249
251
251
250
251
250
251
249
237
188
195
188
148
150
152
149
146
144
147
143
144
141
200
238
213
218
233
242
242
232
223
217
221
235
91
67
33
33
165
85
80
53
222
216
217
215
164
75
22
94
211
105
111
28
30
27
30
31
33
87
153
149
165
242
250
251
250
251
250
250
251
249
251
196
173
153
175
143
148
145
143
147
145
145
147
158
164
168
172
188
211
216
230
244
245
246
244
231
217
71
27
73
159
136
42
162
218
215
200
88
21
45
203
216
156
162
23
26
29
28
27
91
31
101
155
210
226
194
227
248
243
221
200
203
205
216
230
215
172
148
183
135
138
135
142
142
144
146
149
148
175
172
170
160
159
188
229
229
225
234
238
246
250
79
205
34
95
191
25
190
204
174
39
48
143
170
200
138
146
55
27
26
29
54
29
25
62
225
249
249
248
186
184
229
244
236
165
139
141
142
138
134
132
129
128
132
129
130
137
138
142
146
153
157
162
165
176
180
169
160
166
174
214
234
237
246
251
249
112
88
86
44
119
136
115
27
112
165
165
175
90
103
73
46
25
28
28
32
24
116
250
252
251
251
249
211
185
198
243
221
220
174
153
137
134
137
130
129
127
127
127
131
135
133
146
145
148
155
157
159
157
155
153
148
151
149
145
153
182
210
238
248
253
248
41
90
53
17
134
173
154
167
104
100
44
131
42
98
21
45
32
30
210
253
251
251
250
250
251
233
179
180
242
243
168
164
170
161
131
134
128
121
126
127
122
128
134
145
148
150
157
157
159
155
176
225
220
223
227
231
233
235
238
242
243
248
250
251
248
102
18
162
162
148
151
88
198
46
33
25
33
34
26
24
47
233
252
250
249
221
236
254
255
249
184
182
240
208
167
153
155
169
149
129
127
126
125
122
123
125
137
145
147
149
155
157
161
164
222
210
241
252
251
250
251
250
251
250
250
250
250
250
249
213
88
46
154
93
70
204
200
149
66
88
60
35
23
50
185
252
251
252
250
135
138
144
155
164
158
163
183
192
168
160
150
148
152
129
125
125
125
121
119
120
141
143
145
151
156
156
161
161
162
194
210
229
246
253
255
254
255
255
255
254
252
246
235
228
138
40
54
68
130
147
154
179
175
64
29
38
73
152
198
251
251
251
246
134
144
148
144
145
145
143
148
144
146
146
144
129
100
122
124
126
122
121
123
125
136
147
146
149
156
159
160
164
162
163
159
158
152
153
155
156
153
150
147
143
141
168
148
175
167
118
184
239
188
168
153
160
137
95
115
134
169
149
161
253
251
251
245
131
142
145
144
140
141
145
142
146
144
139
137
135
131
128
122
124
125
126
128
133
137
144
148
150
154
157
161
163
163
162
163
161
161
160
160
157
150
150
164
208
253
183
243
255
241
223
212
166
160
150
155
142
136
122
136
163
181
130
85
178
242
251
248
126
136
140
141
139
139
140
140
145
141
139
136
133
127
126
121
125
126
129
135
141
136
143
143
149
154
156
162
162
162
162
162
161
163
159
159
151
201
255
252
246
242
235
200
118
99
137
163
148
153
155
140
140
123
133
151
164
179
125
168
194
44
96
243
149
132
137
135
137
138
139
139
141
140
140
132
129
129
124
121
125
131
137
141
144
136
144
144
150
152
155
160
163
159
159
163
160
162
160
156
193
238
196
159
148
151
144
143
141
136
138
150
145
155
144
136
139
124
139
151
155
161
113
111
174
166
67
166
218
128
131
137
134
137
137
143
139
139
137
135
131
128
123
123
131
135
142
148
150
137
140
149
149
154
154
159
162
159
160
159
160
157
155
153
150
150
150
152
155
156
149
143
138
131
131
136
144
131
131
132
132
126
135
134
131
142
110
112
112
217
85
96
245
125
131
130
132
128
135
133
132
142
135
132
124
127
126
126
132
142
145
148
151
138
143
147
153
155
155
159
159
158
158
155
159
158
153
155
152
153
157
153
154
153
148
140
138
128
129
127
100
121
126
124
123
115
134
129
134
128
107
106
106
145
215
70
237
163
125
130
127
131
130
133
133
134
135
131
132
129
128
127
133
138
147
150
155
135
139
146
149
152
155
158
161
156
156
153
158
156
157
152
155
154
156
153
152
147
142
141
134
128
127
123
124
116
114
114
116
112
122
130
131
105
103
103
105
108
219
83
131
234
119
125
125
125
126
128
131
134
138
131
134
128
131
135
137
144
150
155
158
132
141
148
151
153
154
158
157
153
153
153
153
154
155
150
151
157
151
152
147
141
139
135
130
129
125
123
124
118
113
114
114
112
114
110
105
107
103
102
108
106
160
174
80
247
117
125
117
123
121
127
126
127
129
133
132
133
135
138
144
147
152
159
159
135
142
143
154
152
154
157
156
156
155
155
155
153
150
152
152
152
152
151
145
140
135
129
126
127
123
123
119
119
113
112
114
114
114
107
91
104
103
104
104
105
107
235
72
222
171
123
120
116
118
122
123
126
126
132
135
137
140
142
142
145
155
157
160
134
139
146
151
152
152
156
154
156
150
156
154
151
152
154
151
149
153
149
137
133
127
122
121
122
120
116
117
116
113
107
108
111
113
103
103
103
102
104
100
103
107
213
108
127
228
122
118
120
118
119
122
126
129
130
136
139
141
142
143
147
151
157
159
134
140
143
146
147
152
154
154
154
152
154
154
151
152
155
152
149
148
142
137
129
122
119
122
117
116
114
116
110
106
107
104
108
107
108
101
103
102
106
105
106
110
152
187
77
239
120
120
119
124
122
122
129
128
133
132
137
137
143
144
146
154
156
158
136
137
140
144
145
147
148
151
152
152
154
153
153
151
149
147
147
136
130
126
124
119
118
120
117
113
112
113
108
107
107
104
105
109
101
102
104
106
107
105
108
110
125
224
71
243
120
119
118
114
123
122
130
131
132
136
135
136
140
141
148
150
154
156
